<?xml version="1.0" encoding="UTF-8" standalone="no"?>
<svg xmlns:dc="http://purl.org/dc/elements/1.1/"
  xmlns:cc="http://creativecommons.org/ns#"
  xmlns:rdf="http://www.w3.org/1999/02/22-rdf-syntax-ns#"
  xmlns:svg="http://www.w3.org/2000/svg"
  xmlns="http://www.w3.org/2000/svg"
  xmlns:sodipodi="http://sodipodi.sourceforge.net/DTD/sodipodi-0.dtd"
  xmlns:inkscape="http://www.inkscape.org/namespaces/inkscape" version="1.1" id="svg2" xml:space="preserve" width="1440" height="1440" viewBox="0 0 1440 1440" sodipodi:docname="Logo.ai">
  <metadata id="metadata8">
    <rdf:RDF>
      <cc:Work rdf:about="">
        <dc:format>image/svg+xml</dc:format>
        <dc:type rdf:resource="http://purl.org/dc/dcmitype/StillImage" />
      </cc:Work>
    </rdf:RDF>
  </metadata>
  <defs id="defs6">
    <clipPath clipPathUnits="userSpaceOnUse" id="clipPath20">
      <path d="M 0,1080 H 1080 V 0 H 0 Z" id="path18" />
    </clipPath>
  </defs>
  <sodipodi:namedview pagecolor="#ffffff" bordercolor="#666666" borderopacity="1" objecttolerance="10" gridtolerance="10" guidetolerance="10" inkscape:pageopacity="0" inkscape:pageshadow="2" inkscape:window-width="640" inkscape:window-height="480" id="namedview4" />
  <g id="g10" inkscape:groupmode="layer" inkscape:label="Logo" transform="matrix(1.3333333,0,0,-1.3333333,0,1440)">
    <path d="M 0,0 H 1079.5 V 1080 H 0 Z" style="fill:#000000;fill-opacity:1;fill-rule:nonzero;stroke:none" id="path12" />
    <g id="g14">
      <g id="g16" clip-path="url(#clipPath20)">
        <g id="g22" transform="translate(388.9995,808.0288)">
          <path d="M 0,0 C 59.843,0 89.299,-36.898 91.159,-83.408 H 46.2 c -5.271,29.766 -15.813,41.549 -46.2,41.549 -33.177,0 -51.161,-12.713 -51.161,-66.664 0,-53.642 17.984,-66.664 51.161,-66.664 30.387,0 40.929,12.092 46.2,41.549 h 44.959 c -1.86,-46.51 -31.316,-83.408 -91.159,-83.408 -70.075,0 -96.12,52.711 -96.12,108.523 C -96.12,-52.711 -70.075,0 0,0" style="fill:#ffffff;fill-opacity:1;fill-rule:nonzero;stroke:none" id="path24" />
        </g>
        <g id="g26" transform="translate(689.8291,592.7271)">
          <path d="M 0,0 C -54.881,0 -92.089,24.186 -92.089,79.067 V 213.945 H -47.13 V 88.369 c 0,-31.627 8.992,-46.51 47.13,-46.51 38.139,0 46.82,14.883 46.82,46.51 V 213.945 H 91.779 V 79.067 C 91.779,24.186 54.882,0 0,0" style="fill:#ffffff;fill-opacity:1;fill-rule:nonzero;stroke:none" id="path28" />
        </g>
        <g id="g30" transform="translate(378.7676,377.0137)">
          <path d="M 0,0 C 32.867,0 44.029,6.821 44.029,31.007 44.029,55.813 32.867,63.254 0,63.254 H -31.627 V 0 Z m 47.13,-105.732 v 63.874 h -78.757 v -63.874 H -76.586 V 105.112 H 0 c 66.974,0 88.989,-28.216 88.989,-66.353 0,-34.108 -18.914,-54.882 -60.773,-55.813 v -4.961 h 63.873 v -83.717 z" style="fill:#ffffff;fill-opacity:1;fill-rule:nonzero;stroke:none" id="path32" />
        </g>
        <g id="g34" transform="translate(716.4951,351.2783)">
          <path d="m 0,0 -24.186,84.647 h -4.96 L -53.642,0 Z m -124.646,-79.997 63.252,210.845 H 7.752 L 71.005,-79.997 H 22.944 l -10.851,38.139 h -77.827 l -10.852,-38.139 z" style="fill:#ffffff;fill-opacity:1;fill-rule:nonzero;stroke:none" id="path36" />
        </g>
      </g>
    </g>
  </g>
</svg>
